<svg width="385" height="227" viewBox="0 0 385 227" fill="none" xmlns="http://www.w3.org/2000/svg">
<g filter="url(#filter0_d_1_2)">
<path fill-rule="evenodd" clip-rule="evenodd" d="M63 110C91.1665 110 114 87.1665 114 59C114 55.5775 113.663 52.2337 113.02 49L355 49C363.284 49 370 55.7157 370 64V193C370 201.284 363.284 208 355 208H49C40.7157 208 34 201.284 34 193L34 100.958C42.2336 106.66 52.2267 110 63 110Z" fill="#A2E4FF"/>
<g clip-path="url(#clip0_1_2)">
<path d="M78.44 219L124.328 151.8H135.752L89.864 219H78.44ZM84.296 188.088C81.032 188.088 78.152 187.352 75.656 185.88C73.16 184.344 71.176 182.2 69.704 179.448C68.296 176.632 67.592 173.336 67.592 169.56C67.592 165.784 68.296 162.52 69.704 159.768C71.176 157.016 73.16 154.872 75.656 153.336C78.152 151.8 81.032 151.032 84.296 151.032C87.56 151.032 90.44 151.8 92.936 153.336C95.432 154.872 97.384 157.016 98.792 159.768C100.2 162.52 100.904 165.784 100.904 169.56C100.904 173.336 100.2 176.632 98.792 179.448C97.384 182.2 95.432 184.344 92.936 185.88C90.44 187.352 87.56 188.088 84.296 188.088ZM84.296 180.216C86.408 180.216 88.104 179.352 89.384 177.624C90.664 175.832 91.304 173.144 91.304 169.56C91.304 165.976 90.664 163.32 89.384 161.592C88.104 159.8 86.408 158.904 84.296 158.904C82.248 158.904 80.552 159.8 79.208 161.592C77.928 163.32 77.288 165.976 77.288 169.56C77.288 173.08 77.928 175.736 79.208 177.528C80.552 179.32 82.248 180.216 84.296 180.216ZM129.896 219.768C126.696 219.768 123.816 219.032 121.256 217.56C118.76 216.024 116.808 213.88 115.4 211.128C113.992 208.312 113.288 205.016 113.288 201.24C113.288 197.464 113.992 194.2 115.4 191.448C116.808 188.696 118.76 186.552 121.256 185.016C123.816 183.48 126.696 182.712 129.896 182.712C133.224 182.712 136.136 183.48 138.632 185.016C141.128 186.552 143.08 188.696 144.488 191.448C145.896 194.2 146.6 197.464 146.6 201.24C146.6 205.016 145.896 208.312 144.488 211.128C143.08 213.88 141.128 216.024 138.632 217.56C136.136 219.032 133.224 219.768 129.896 219.768ZM129.896 211.896C132.008 211.896 133.704 211.032 134.984 209.304C136.264 207.512 136.904 204.824 136.904 201.24C136.904 197.72 136.264 195.064 134.984 193.272C133.704 191.48 132.008 190.584 129.896 190.584C127.848 190.584 126.152 191.48 124.808 193.272C123.528 195 122.888 197.656 122.888 201.24C122.888 204.824 123.528 207.512 124.808 209.304C126.152 211.032 127.848 211.896 129.896 211.896Z" fill="white"/>
</g>
<path d="M131 60C125.482 60 121 64.4819 121 70C121 75.5181 125.482 80 131 80C136.518 80 141 75.5181 141 70C141 64.4819 136.518 60 131 60ZM131 60.8C136.086 60.8 140.2 64.9142 140.2 70C140.2 75.0858 136.086 79.2 131 79.2C125.914 79.2 121.8 75.0858 121.8 70C121.8 64.9142 125.914 60.8 131 60.8ZM131 62C126.586 62 123 65.5865 123 70C123 71.7914 123.59 73.4497 124.587 74.7836C124.618 74.8257 124.658 74.8612 124.703 74.8881C124.748 74.915 124.798 74.9327 124.85 74.9402C124.902 74.9478 124.955 74.945 125.006 74.9321C125.057 74.9191 125.105 74.8963 125.147 74.8648C125.189 74.8334 125.224 74.794 125.251 74.7488C125.278 74.7036 125.296 74.6536 125.304 74.6016C125.311 74.5496 125.308 74.4966 125.295 74.4456C125.282 74.3947 125.26 74.3468 125.228 74.3047C124.331 73.1037 123.8 71.6159 123.8 70C123.8 66.0188 127.019 62.8 131 62.8C134.981 62.8 138.2 66.0188 138.2 70C138.2 73.9812 134.981 77.2 131 77.2C129.839 77.2 128.744 76.9262 127.774 76.4391C127.727 76.4155 127.676 76.4013 127.624 76.3975C127.571 76.3936 127.519 76.4001 127.469 76.4166C127.419 76.4331 127.373 76.4593 127.333 76.4936C127.293 76.528 127.261 76.5698 127.237 76.6168C127.213 76.6637 127.199 76.7148 127.195 76.7672C127.192 76.8196 127.198 76.8723 127.215 76.9222C127.231 76.972 127.257 77.0182 127.292 77.058C127.326 77.0977 127.368 77.1303 127.415 77.1539C128.493 77.6954 129.713 78 131 78C135.414 78 139 74.4135 139 70C139 65.5865 135.414 62 131 62ZM136.952 71.3586C136.909 71.3612 136.868 71.3774 136.836 71.4048C136.803 71.4323 136.78 71.4694 136.77 71.5109C136.477 72.6261 135.867 73.6357 135.012 74.4133C134.991 74.4307 134.975 74.452 134.963 74.4759C134.951 74.4999 134.944 74.526 134.942 74.5527C134.941 74.5794 134.944 74.6061 134.953 74.6314C134.962 74.6566 134.976 74.6798 134.994 74.6996C135.012 74.7195 135.033 74.7355 135.058 74.7467C135.082 74.7579 135.108 74.7642 135.135 74.7651C135.162 74.766 135.188 74.7616 135.213 74.752C135.238 74.7424 135.261 74.7279 135.28 74.7094C136.194 73.8795 136.845 72.8026 137.157 71.6125C137.165 71.5834 137.167 71.5528 137.161 71.523C137.156 71.4932 137.144 71.4651 137.126 71.4406C137.108 71.4162 137.085 71.3961 137.058 71.3819C137.032 71.3677 137.002 71.3597 136.972 71.3586C136.965 71.3582 136.958 71.3582 136.952 71.3586ZM134.343 74.9766C134.305 74.9773 134.268 74.989 134.236 75.0102C134.153 75.0637 134.068 75.1152 133.982 75.1649C133.936 75.1914 133.902 75.2351 133.889 75.2864C133.875 75.3376 133.882 75.3923 133.909 75.4383C133.935 75.4843 133.979 75.5179 134.03 75.5316C134.081 75.5454 134.136 75.5382 134.182 75.5117C134.274 75.4587 134.364 75.4032 134.452 75.3461C134.489 75.3229 134.518 75.2882 134.533 75.2474C134.549 75.2065 134.55 75.1617 134.538 75.1198C134.526 75.0779 134.5 75.0412 134.465 75.0153C134.429 74.9895 134.387 74.9759 134.343 74.9766ZM126.009 75.3203C125.926 75.3176 125.845 75.3408 125.776 75.3867C125.706 75.4325 125.653 75.4987 125.623 75.5762C125.593 75.6536 125.588 75.7384 125.609 75.8188C125.629 75.8992 125.674 75.9713 125.738 76.025C125.84 76.1148 125.945 76.2022 126.052 76.2867C126.093 76.3205 126.141 76.3457 126.192 76.3609C126.243 76.3761 126.296 76.381 126.349 76.3753C126.402 76.3695 126.453 76.3533 126.5 76.3276C126.546 76.3018 126.587 76.267 126.62 76.2252C126.653 76.1835 126.678 76.1356 126.692 76.0843C126.706 76.033 126.71 75.9794 126.703 75.9267C126.696 75.8739 126.679 75.823 126.652 75.777C126.626 75.7309 126.59 75.6907 126.548 75.6586C126.451 75.5824 126.357 75.5036 126.264 75.4227C126.194 75.3596 126.104 75.3233 126.009 75.3203Z" fill="white"/>
<path d="M150.718 75.084C150.121 75.084 149.589 74.986 149.122 74.79C148.665 74.594 148.273 74.2953 147.946 73.894C147.619 73.4927 147.372 72.998 147.204 72.41C147.036 71.8127 146.952 71.122 146.952 70.338C146.952 69.638 147.017 69.0267 147.148 68.504C147.279 67.972 147.461 67.5147 147.694 67.132C147.927 66.7493 148.198 66.4273 148.506 66.166C148.823 65.8953 149.164 65.6807 149.528 65.522C149.901 65.354 150.284 65.228 150.676 65.144L153.98 64.374L154.148 65.298L151.04 65.998C150.844 66.0447 150.606 66.11 150.326 66.194C150.055 66.278 149.775 66.404 149.486 66.572C149.206 66.74 148.945 66.9733 148.702 67.272C148.459 67.5707 148.263 67.958 148.114 68.434C147.974 68.9007 147.904 69.484 147.904 70.184C147.904 70.3333 147.909 70.4547 147.918 70.548C147.927 70.632 147.937 70.7253 147.946 70.828C147.965 70.9213 147.979 71.0613 147.988 71.248L147.554 70.884C147.657 70.3147 147.867 69.82 148.184 69.4C148.501 68.9707 148.898 68.6393 149.374 68.406C149.859 68.1633 150.396 68.042 150.984 68.042C151.665 68.042 152.272 68.1913 152.804 68.49C153.336 68.7793 153.751 69.1853 154.05 69.708C154.358 70.2307 154.512 70.8373 154.512 71.528C154.512 72.2093 154.353 72.8207 154.036 73.362C153.728 73.9033 153.289 74.328 152.72 74.636C152.151 74.9347 151.483 75.084 150.718 75.084ZM150.83 74.258C151.353 74.258 151.815 74.1413 152.216 73.908C152.617 73.6653 152.93 73.3387 153.154 72.928C153.387 72.5173 153.504 72.0553 153.504 71.542C153.504 71.038 153.387 70.59 153.154 70.198C152.93 69.806 152.617 69.498 152.216 69.274C151.815 69.0407 151.348 68.924 150.816 68.924C150.293 68.924 149.831 69.036 149.43 69.26C149.029 69.4747 148.711 69.778 148.478 70.17C148.254 70.562 148.142 71.0147 148.142 71.528C148.142 72.0413 148.254 72.5033 148.478 72.914C148.711 73.3247 149.029 73.6513 149.43 73.894C149.841 74.1367 150.307 74.258 150.83 74.258ZM159.667 75.07C158.957 75.07 158.318 74.9113 157.749 74.594C157.189 74.2673 156.745 73.824 156.419 73.264C156.092 72.6947 155.929 72.046 155.929 71.318C155.929 70.5807 156.092 69.932 156.419 69.372C156.745 68.812 157.189 68.3733 157.749 68.056C158.309 67.7387 158.948 67.58 159.667 67.58C160.395 67.58 161.039 67.7387 161.599 68.056C162.168 68.3733 162.611 68.812 162.929 69.372C163.255 69.932 163.419 70.5807 163.419 71.318C163.419 72.046 163.255 72.6947 162.929 73.264C162.611 73.824 162.168 74.2673 161.599 74.594C161.029 74.9113 160.385 75.07 159.667 75.07ZM159.667 74.188C160.199 74.188 160.67 74.0713 161.081 73.838C161.491 73.5953 161.813 73.2593 162.047 72.83C162.289 72.3913 162.411 71.8873 162.411 71.318C162.411 70.7393 162.289 70.2353 162.047 69.806C161.813 69.3767 161.491 69.0453 161.081 68.812C160.67 68.5693 160.203 68.448 159.681 68.448C159.158 68.448 158.691 68.5693 158.281 68.812C157.87 69.0453 157.543 69.3767 157.301 69.806C157.058 70.2353 156.937 70.7393 156.937 71.318C156.937 71.8873 157.058 72.3913 157.301 72.83C157.543 73.2593 157.87 73.5953 158.281 73.838C158.691 74.0713 159.153 74.188 159.667 74.188ZM165.543 75V67.65H166.537V70.898H171.171V67.65H172.165V75H171.171V71.752H166.537V75H165.543ZM175.116 77.786C174.771 77.786 174.44 77.73 174.122 77.618C173.814 77.506 173.548 77.338 173.324 77.114L173.786 76.372C173.973 76.5493 174.174 76.6847 174.388 76.778C174.612 76.8807 174.86 76.932 175.13 76.932C175.457 76.932 175.737 76.8387 175.97 76.652C176.213 76.4747 176.442 76.1573 176.656 75.7L177.132 74.622L177.244 74.468L180.268 67.65H181.248L177.566 75.882C177.361 76.358 177.132 76.736 176.88 77.016C176.638 77.296 176.372 77.492 176.082 77.604C175.793 77.7253 175.471 77.786 175.116 77.786ZM177.076 75.21L173.688 67.65H174.724L177.72 74.398L177.076 75.21ZM185.672 75.07C184.944 75.07 184.29 74.9113 183.712 74.594C183.142 74.2673 182.694 73.824 182.368 73.264C182.041 72.6947 181.878 72.046 181.878 71.318C181.878 70.5807 182.041 69.932 182.368 69.372C182.694 68.812 183.142 68.3733 183.712 68.056C184.29 67.7387 184.944 67.58 185.672 67.58C186.297 67.58 186.862 67.7013 187.366 67.944C187.87 68.1867 188.266 68.5507 188.556 69.036L187.814 69.54C187.562 69.1667 187.249 68.8913 186.876 68.714C186.502 68.5367 186.096 68.448 185.658 68.448C185.135 68.448 184.664 68.5693 184.244 68.812C183.824 69.0453 183.492 69.3767 183.25 69.806C183.007 70.2353 182.886 70.7393 182.886 71.318C182.886 71.8967 183.007 72.4007 183.25 72.83C183.492 73.2593 183.824 73.5953 184.244 73.838C184.664 74.0713 185.135 74.188 185.658 74.188C186.096 74.188 186.502 74.0993 186.876 73.922C187.249 73.7447 187.562 73.474 187.814 73.11L188.556 73.614C188.266 74.09 187.87 74.454 187.366 74.706C186.862 74.9487 186.297 75.07 185.672 75.07ZM193.381 75.07C192.672 75.07 192.033 74.9113 191.463 74.594C190.903 74.2673 190.46 73.824 190.133 73.264C189.807 72.6947 189.643 72.046 189.643 71.318C189.643 70.5807 189.807 69.932 190.133 69.372C190.46 68.812 190.903 68.3733 191.463 68.056C192.023 67.7387 192.663 67.58 193.381 67.58C194.109 67.58 194.753 67.7387 195.313 68.056C195.883 68.3733 196.326 68.812 196.643 69.372C196.97 69.932 197.133 70.5807 197.133 71.318C197.133 72.046 196.97 72.6947 196.643 73.264C196.326 73.824 195.883 74.2673 195.313 74.594C194.744 74.9113 194.1 75.07 193.381 75.07ZM193.381 74.188C193.913 74.188 194.385 74.0713 194.795 73.838C195.206 73.5953 195.528 73.2593 195.761 72.83C196.004 72.3913 196.125 71.8873 196.125 71.318C196.125 70.7393 196.004 70.2353 195.761 69.806C195.528 69.3767 195.206 69.0453 194.795 68.812C194.385 68.5693 193.918 68.448 193.395 68.448C192.873 68.448 192.406 68.5693 191.995 68.812C191.585 69.0453 191.258 69.3767 191.015 69.806C190.773 70.2353 190.651 70.7393 190.651 71.318C190.651 71.8873 190.773 72.3913 191.015 72.83C191.258 73.2593 191.585 73.5953 191.995 73.838C192.406 74.0713 192.868 74.188 193.381 74.188ZM199.258 75V67.65H202.506C203.336 67.65 203.99 67.8087 204.466 68.126C204.951 68.4433 205.194 68.91 205.194 69.526C205.194 70.1233 204.965 70.5853 204.508 70.912C204.05 71.2293 203.448 71.388 202.702 71.388L202.898 71.094C203.775 71.094 204.419 71.2573 204.83 71.584C205.24 71.9107 205.446 72.382 205.446 72.998C205.446 73.6327 205.212 74.1273 204.746 74.482C204.288 74.8273 203.574 75 202.604 75H199.258ZM200.224 74.216H202.562C203.187 74.216 203.658 74.118 203.976 73.922C204.302 73.7167 204.466 73.39 204.466 72.942C204.466 72.494 204.321 72.1673 204.032 71.962C203.742 71.7567 203.285 71.654 202.66 71.654H200.224V74.216ZM200.224 70.912H202.436C203.005 70.912 203.439 70.8047 203.738 70.59C204.046 70.3753 204.2 70.0627 204.2 69.652C204.2 69.2413 204.046 68.9333 203.738 68.728C203.439 68.5227 203.005 68.42 202.436 68.42H200.224V70.912ZM211.439 75V67.65H212.433V70.898H217.067V67.65H218.061V75H217.067V71.752H212.433V75H211.439ZM225.451 75V73.376L225.409 73.11V70.394C225.409 69.7687 225.231 69.288 224.877 68.952C224.531 68.616 224.013 68.448 223.323 68.448C222.847 68.448 222.394 68.5273 221.965 68.686C221.535 68.8447 221.171 69.0547 220.873 69.316L220.425 68.574C220.798 68.2567 221.246 68.014 221.769 67.846C222.291 67.6687 222.842 67.58 223.421 67.58C224.373 67.58 225.105 67.818 225.619 68.294C226.141 68.7607 226.403 69.4747 226.403 70.436V75H225.451ZM222.917 75.07C222.366 75.07 221.885 74.9813 221.475 74.804C221.073 74.6173 220.765 74.3653 220.551 74.048C220.336 73.7213 220.229 73.348 220.229 72.928C220.229 72.5453 220.317 72.2 220.495 71.892C220.681 71.5747 220.98 71.3227 221.391 71.136C221.811 70.94 222.371 70.842 223.071 70.842H225.605V71.584H223.099C222.389 71.584 221.895 71.71 221.615 71.962C221.344 72.214 221.209 72.5267 221.209 72.9C221.209 73.32 221.372 73.656 221.699 73.908C222.025 74.16 222.483 74.286 223.071 74.286C223.631 74.286 224.111 74.16 224.513 73.908C224.923 73.6467 225.222 73.2733 225.409 72.788L225.633 73.474C225.446 73.9593 225.119 74.3467 224.653 74.636C224.195 74.9253 223.617 75.07 222.917 75.07ZM232.713 75V67.65H235.961C236.791 67.65 237.445 67.8087 237.921 68.126C238.406 68.4433 238.649 68.91 238.649 69.526C238.649 70.1233 238.42 70.5853 237.963 70.912C237.505 71.2293 236.903 71.388 236.157 71.388L236.353 71.094C237.23 71.094 237.874 71.2573 238.285 71.584C238.695 71.9107 238.901 72.382 238.901 72.998C238.901 73.6327 238.667 74.1273 238.201 74.482C237.743 74.8273 237.029 75 236.059 75H232.713ZM233.679 74.216H236.017C236.642 74.216 237.113 74.118 237.431 73.922C237.757 73.7167 237.921 73.39 237.921 72.942C237.921 72.494 237.776 72.1673 237.487 71.962C237.197 71.7567 236.74 71.654 236.115 71.654H233.679V74.216ZM233.679 70.912H235.891C236.46 70.912 236.894 70.8047 237.193 70.59C237.501 70.3753 237.655 70.0627 237.655 69.652C237.655 69.2413 237.501 68.9333 237.193 68.728C236.894 68.5227 236.46 68.42 235.891 68.42H233.679V70.912ZM245.794 75V73.376L245.752 73.11V70.394C245.752 69.7687 245.575 69.288 245.22 68.952C244.875 68.616 244.357 68.448 243.666 68.448C243.19 68.448 242.738 68.5273 242.308 68.686C241.879 68.8447 241.515 69.0547 241.216 69.316L240.768 68.574C241.142 68.2567 241.59 68.014 242.112 67.846C242.635 67.6687 243.186 67.58 243.764 67.58C244.716 67.58 245.449 67.818 245.962 68.294C246.485 68.7607 246.746 69.4747 246.746 70.436V75H245.794ZM243.26 75.07C242.71 75.07 242.229 74.9813 241.818 74.804C241.417 74.6173 241.109 74.3653 240.894 74.048C240.68 73.7213 240.572 73.348 240.572 72.928C240.572 72.5453 240.661 72.2 240.838 71.892C241.025 71.5747 241.324 71.3227 241.734 71.136C242.154 70.94 242.714 70.842 243.414 70.842H245.948V71.584H243.442C242.733 71.584 242.238 71.71 241.958 71.962C241.688 72.214 241.552 72.5267 241.552 72.9C241.552 73.32 241.716 73.656 242.042 73.908C242.369 74.16 242.826 74.286 243.414 74.286C243.974 74.286 244.455 74.16 244.856 73.908C245.267 73.6467 245.566 73.2733 245.752 72.788L245.976 73.474C245.79 73.9593 245.463 74.3467 244.996 74.636C244.539 74.9253 243.96 75.07 243.26 75.07ZM254.223 74.132L253.999 74.398V67.65H254.993V74.398L254.727 74.132H258.829L258.563 74.398V67.65H259.557V75H249.393V67.65H250.387V74.398L250.135 74.132H254.223ZM265.531 75.07C264.765 75.07 264.093 74.9113 263.515 74.594C262.936 74.2673 262.483 73.824 262.157 73.264C261.83 72.6947 261.667 72.046 261.667 71.318C261.667 70.59 261.821 69.946 262.129 69.386C262.446 68.826 262.875 68.3873 263.417 68.07C263.967 67.7433 264.583 67.58 265.265 67.58C265.955 67.58 266.567 67.7387 267.099 68.056C267.64 68.364 268.065 68.8027 268.373 69.372C268.681 69.932 268.835 70.5807 268.835 71.318C268.835 71.3647 268.83 71.416 268.821 71.472C268.821 71.5187 268.821 71.57 268.821 71.626H262.423V70.884H268.289L267.897 71.178C267.897 70.646 267.78 70.1747 267.547 69.764C267.323 69.344 267.015 69.0173 266.623 68.784C266.231 68.5507 265.778 68.434 265.265 68.434C264.761 68.434 264.308 68.5507 263.907 68.784C263.505 69.0173 263.193 69.344 262.969 69.764C262.745 70.184 262.633 70.6647 262.633 71.206V71.36C262.633 71.92 262.754 72.4147 262.997 72.844C263.249 73.264 263.594 73.5953 264.033 73.838C264.481 74.0713 264.989 74.188 265.559 74.188C266.007 74.188 266.422 74.1087 266.805 73.95C267.197 73.7913 267.533 73.5487 267.813 73.222L268.373 73.866C268.046 74.258 267.635 74.5567 267.141 74.762C266.655 74.9673 266.119 75.07 265.531 75.07ZM271.035 75V67.65H272.043L275.375 73.292H274.955L278.343 67.65H279.267V75H278.357V68.784L278.539 68.868L275.375 74.104H274.927L271.735 68.812L271.945 68.77V75H271.035ZM288.84 75.07C288.112 75.07 287.458 74.9113 286.88 74.594C286.31 74.2673 285.862 73.824 285.536 73.264C285.209 72.6947 285.046 72.046 285.046 71.318C285.046 70.5807 285.209 69.932 285.536 69.372C285.862 68.812 286.31 68.3733 286.88 68.056C287.458 67.7387 288.112 67.58 288.84 67.58C289.465 67.58 290.03 67.7013 290.534 67.944C291.038 68.1867 291.434 68.5507 291.724 69.036L290.982 69.54C290.73 69.1667 290.417 68.8913 290.044 68.714C289.67 68.5367 289.264 68.448 288.826 68.448C288.303 68.448 287.832 68.5693 287.412 68.812C286.992 69.0453 286.66 69.3767 286.418 69.806C286.175 70.2353 286.054 70.7393 286.054 71.318C286.054 71.8967 286.175 72.4007 286.418 72.83C286.66 73.2593 286.992 73.5953 287.412 73.838C287.832 74.0713 288.303 74.188 288.826 74.188C289.264 74.188 289.67 74.0993 290.044 73.922C290.417 73.7447 290.73 73.474 290.982 73.11L291.724 73.614C291.434 74.09 291.038 74.454 290.534 74.706C290.03 74.9487 289.465 75.07 288.84 75.07ZM298.296 71.892C297.867 72.0787 297.433 72.228 296.994 72.34C296.565 72.4427 296.136 72.494 295.706 72.494C294.838 72.494 294.152 72.298 293.648 71.906C293.144 71.5047 292.892 70.8887 292.892 70.058V67.65H293.872V70.002C293.872 70.562 294.054 70.982 294.418 71.262C294.782 71.542 295.272 71.682 295.888 71.682C296.262 71.682 296.654 71.6353 297.064 71.542C297.475 71.4393 297.89 71.2947 298.31 71.108L298.296 71.892ZM298.212 75V67.65H299.206V75H298.212ZM305.179 75.07C304.414 75.07 303.742 74.9113 303.163 74.594C302.585 74.2673 302.132 73.824 301.805 73.264C301.479 72.6947 301.315 72.046 301.315 71.318C301.315 70.59 301.469 69.946 301.777 69.386C302.095 68.826 302.524 68.3873 303.065 68.07C303.616 67.7433 304.232 67.58 304.913 67.58C305.604 67.58 306.215 67.7387 306.747 68.056C307.289 68.364 307.713 68.8027 308.021 69.372C308.329 69.932 308.483 70.5807 308.483 71.318C308.483 71.3647 308.479 71.416 308.469 71.472C308.469 71.5187 308.469 71.57 308.469 71.626H302.071V70.884H307.937L307.545 71.178C307.545 70.646 307.429 70.1747 307.195 69.764C306.971 69.344 306.663 69.0173 306.271 68.784C305.879 68.5507 305.427 68.434 304.913 68.434C304.409 68.434 303.957 68.5507 303.555 68.784C303.154 69.0173 302.841 69.344 302.617 69.764C302.393 70.184 302.281 70.6647 302.281 71.206V71.36C302.281 71.92 302.403 72.4147 302.645 72.844C302.897 73.264 303.243 73.5953 303.681 73.838C304.129 74.0713 304.638 74.188 305.207 74.188C305.655 74.188 306.071 74.1087 306.453 73.95C306.845 73.7913 307.181 73.5487 307.461 73.222L308.021 73.866C307.695 74.258 307.284 74.5567 306.789 74.762C306.304 74.9673 305.767 75.07 305.179 75.07ZM311.755 75V68.252L312.007 68.518H308.969V67.65H315.535V68.518H312.497L312.749 68.252V75H311.755ZM317.099 77.786C316.753 77.786 316.422 77.73 316.105 77.618C315.797 77.506 315.531 77.338 315.307 77.114L315.769 76.372C315.955 76.5493 316.156 76.6847 316.371 76.778C316.595 76.8807 316.842 76.932 317.113 76.932C317.439 76.932 317.719 76.8387 317.953 76.652C318.195 76.4747 318.424 76.1573 318.639 75.7L319.115 74.622L319.227 74.468L322.251 67.65H323.231L319.549 75.882C319.343 76.358 319.115 76.736 318.863 77.016C318.62 77.296 318.354 77.492 318.065 77.604C317.775 77.7253 317.453 77.786 317.099 77.786ZM319.059 75.21L315.671 67.65H316.707L319.703 74.398L319.059 75.21Z" fill="white"/>
<path d="M131 20C125.482 20 121 24.4819 121 30C121 35.5181 125.482 40 131 40C136.518 40 141 35.5181 141 30C141 24.4819 136.518 20 131 20ZM131 20.8C136.086 20.8 140.2 24.9142 140.2 30C140.2 35.0858 136.086 39.2 131 39.2C125.914 39.2 121.8 35.0858 121.8 30C121.8 24.9142 125.914 20.8 131 20.8ZM131 22C126.586 22 123 25.5865 123 30C123 31.7914 123.59 33.4497 124.587 34.7836C124.618 34.8257 124.658 34.8612 124.703 34.8881C124.748 34.915 124.798 34.9327 124.85 34.9402C124.902 34.9478 124.955 34.945 125.006 34.9321C125.057 34.9191 125.105 34.8963 125.147 34.8648C125.189 34.8334 125.224 34.794 125.251 34.7488C125.278 34.7036 125.296 34.6536 125.304 34.6016C125.311 34.5496 125.308 34.4966 125.295 34.4456C125.282 34.3947 125.26 34.3468 125.228 34.3047C124.331 33.1037 123.8 31.6159 123.8 30C123.8 26.0188 127.019 22.8 131 22.8C134.981 22.8 138.2 26.0188 138.2 30C138.2 33.9812 134.981 37.2 131 37.2C129.839 37.2 128.744 36.9262 127.774 36.4391C127.727 36.4155 127.676 36.4013 127.624 36.3975C127.571 36.3936 127.519 36.4001 127.469 36.4166C127.419 36.4331 127.373 36.4593 127.333 36.4936C127.293 36.528 127.261 36.5698 127.237 36.6168C127.213 36.6637 127.199 36.7148 127.195 36.7672C127.192 36.8196 127.198 36.8723 127.215 36.9222C127.231 36.972 127.257 37.0182 127.292 37.058C127.326 37.0977 127.368 37.1303 127.415 37.1539C128.493 37.6954 129.713 38 131 38C135.414 38 139 34.4135 139 30C139 25.5865 135.414 22 131 22ZM136.952 31.3586C136.909 31.3612 136.868 31.3774 136.836 31.4048C136.803 31.4323 136.78 31.4694 136.77 31.5109C136.477 32.6261 135.867 33.6357 135.012 34.4133C134.991 34.4307 134.975 34.452 134.963 34.4759C134.951 34.4999 134.944 34.526 134.942 34.5527C134.941 34.5794 134.944 34.6061 134.953 34.6314C134.962 34.6566 134.976 34.6798 134.994 34.6996C135.012 34.7195 135.033 34.7355 135.058 34.7467C135.082 34.7579 135.108 34.7642 135.135 34.7651C135.162 34.766 135.188 34.7616 135.213 34.752C135.238 34.7424 135.261 34.7279 135.28 34.7094C136.194 33.8795 136.845 32.8026 137.157 31.6125C137.165 31.5834 137.167 31.5528 137.161 31.523C137.156 31.4932 137.144 31.4651 137.126 31.4406C137.108 31.4162 137.085 31.3961 137.058 31.3819C137.032 31.3677 137.002 31.3597 136.972 31.3586C136.965 31.3582 136.958 31.3582 136.952 31.3586ZM134.343 34.9766C134.305 34.9773 134.268 34.989 134.236 35.0102C134.153 35.0637 134.068 35.1152 133.982 35.1649C133.936 35.1914 133.902 35.2351 133.889 35.2864C133.875 35.3376 133.882 35.3923 133.909 35.4383C133.935 35.4843 133.979 35.5179 134.03 35.5316C134.081 35.5454 134.136 35.5382 134.182 35.5117C134.274 35.4587 134.364 35.4032 134.452 35.3461C134.489 35.3229 134.518 35.2882 134.533 35.2474C134.549 35.2065 134.55 35.1617 134.538 35.1198C134.526 35.0779 134.5 35.0412 134.465 35.0153C134.429 34.9895 134.387 34.9759 134.343 34.9766ZM126.009 35.3203C125.926 35.3176 125.845 35.3408 125.776 35.3867C125.706 35.4325 125.653 35.4987 125.623 35.5762C125.593 35.6536 125.588 35.7384 125.609 35.8188C125.629 35.8992 125.674 35.9713 125.738 36.025C125.84 36.1148 125.945 36.2022 126.052 36.2867C126.093 36.3205 126.141 36.3457 126.192 36.3609C126.243 36.3761 126.296 36.381 126.349 36.3753C126.402 36.3695 126.453 36.3533 126.5 36.3276C126.546 36.3018 126.587 36.267 126.62 36.2252C126.653 36.1835 126.678 36.1356 126.692 36.0843C126.706 36.033 126.71 35.9794 126.703 35.9267C126.696 35.8739 126.679 35.823 126.652 35.777C126.626 35.7309 126.59 35.6907 126.548 35.6586C126.451 35.5824 126.357 35.5036 126.264 35.4227C126.194 35.3596 126.104 35.3233 126.009 35.3203Z" fill="#5A5958"/>
<circle cx="62" cy="58" r="47" fill="#3CB7E9"/>
</g>
<defs>
<filter id="filter0_d_1_2" x="0" y="0" width="385" height="227" filterUnits="userSpaceOnUse" color-interpolation-filters="sRGB">
<feFlood flood-opacity="0" result="BackgroundImageFix"/>
<feColorMatrix in="SourceAlpha" type="matrix" values="0 0 0 0 0 0 0 0 0 0 0 0 0 0 0 0 0 0 127 0" result="hardAlpha"/>
<feOffset dy="4"/>
<feGaussianBlur stdDeviation="7.5"/>
<feComposite in2="hardAlpha" operator="out"/>
<feColorMatrix type="matrix" values="0 0 0 0 0 0 0 0 0 0 0 0 0 0 0 0 0 0 0.25 0"/>
<feBlend mode="normal" in2="BackgroundImageFix" result="effect1_dropShadow_1_2"/>
<feBlend mode="normal" in="SourceGraphic" in2="effect1_dropShadow_1_2" result="shape"/>
</filter>
<clipPath id="clip0_1_2">
<rect width="124" height="82" fill="white" transform="translate(46 126)"/>
</clipPath>
</defs>
</svg>
