<svg width="30" height="30" viewBox="0 0 30 30" fill="none" xmlns="http://www.w3.org/2000/svg">
<path d="M5 12.4721C5 11.2693 5 10.6679 5.2987 10.1846C5.5974 9.7013 6.13531 9.43234 7.21115 8.89443L13.2111 5.89443C14.089 5.45552 14.5279 5.23607 15 5.23607C15.4721 5.23607 15.911 5.45552 16.7889 5.89443L22.7889 8.89443C23.8647 9.43234 24.4026 9.7013 24.7013 10.1846C25 10.6679 25 11.2693 25 12.4721V21C25 22.8856 25 23.8284 24.4142 24.4142C23.8284 25 22.8856 25 21 25H9C7.11438 25 6.17157 25 5.58579 24.4142C5 23.8284 5 22.8856 5 21V12.4721Z" stroke="white" stroke-width="2"/>
<path d="M5 12.5L8.16421 15.6642C8.53929 16.0393 9.04799 16.25 9.57843 16.25H20.4216C20.952 16.25 21.4607 16.0393 21.8358 15.6642L25 12.5" stroke="white" stroke-width="2" stroke-linecap="round"/>
</svg>
