<svg width="97" height="35" viewBox="0 0 97 35" fill="none" xmlns="http://www.w3.org/2000/svg">
<rect width="97" height="35" rx="10" fill="white"/>
<path d="M18.752 24.192C17.8773 24.192 17.0613 24.048 16.304 23.76C15.5573 23.472 14.9067 23.0667 14.352 22.544C13.808 22.0213 13.3813 21.408 13.072 20.704C12.7733 20 12.624 19.232 12.624 18.4C12.624 17.568 12.7733 16.8 13.072 16.096C13.3813 15.392 13.8133 14.7787 14.368 14.256C14.9227 13.7333 15.5733 13.328 16.32 13.04C17.0667 12.752 17.8773 12.608 18.752 12.608C19.6373 12.608 20.448 12.752 21.184 13.04C21.9307 13.328 22.576 13.7333 23.12 14.256C23.6747 14.768 24.1067 15.376 24.416 16.08C24.7253 16.784 24.88 17.5573 24.88 18.4C24.88 19.232 24.7253 20.0053 24.416 20.72C24.1067 21.424 23.6747 22.0373 23.12 22.56C22.576 23.072 21.9307 23.472 21.184 23.76C20.448 24.048 19.6373 24.192 18.752 24.192ZM22.416 26.576C21.9787 26.576 21.5627 26.528 21.168 26.432C20.784 26.336 20.4 26.1813 20.016 25.968C19.6427 25.7547 19.248 25.4667 18.832 25.104C18.4267 24.7413 17.984 24.2933 17.504 23.76L20.224 23.072C20.512 23.4667 20.7787 23.7813 21.024 24.016C21.2693 24.2507 21.504 24.416 21.728 24.512C21.9627 24.608 22.208 24.656 22.464 24.656C23.1467 24.656 23.7547 24.3787 24.288 23.824L25.44 25.2C24.6827 26.1173 23.6747 26.576 22.416 26.576ZM18.752 21.984C19.2533 21.984 19.712 21.8987 20.128 21.728C20.5547 21.5573 20.928 21.312 21.248 20.992C21.568 20.672 21.8133 20.2933 21.984 19.856C22.1653 19.408 22.256 18.9227 22.256 18.4C22.256 17.8667 22.1653 17.3813 21.984 16.944C21.8133 16.5067 21.568 16.128 21.248 15.808C20.928 15.488 20.5547 15.2427 20.128 15.072C19.712 14.9013 19.2533 14.816 18.752 14.816C18.2507 14.816 17.7867 14.9013 17.36 15.072C16.9333 15.2427 16.56 15.488 16.24 15.808C15.9307 16.128 15.6853 16.5067 15.504 16.944C15.3333 17.3813 15.248 17.8667 15.248 18.4C15.248 18.9227 15.3333 19.408 15.504 19.856C15.6853 20.2933 15.9307 20.672 16.24 20.992C16.56 21.312 16.9333 21.5573 17.36 21.728C17.7867 21.8987 18.2507 21.984 18.752 21.984ZM26.828 24V12.8H31.676C32.6787 12.8 33.5427 12.9653 34.268 13.296C34.9933 13.616 35.5533 14.08 35.948 14.688C36.3427 15.296 36.54 16.0213 36.54 16.864C36.54 17.696 36.3427 18.416 35.948 19.024C35.5533 19.6213 34.9933 20.08 34.268 20.4C33.5427 20.72 32.6787 20.88 31.676 20.88H28.268L29.42 19.744V24H26.828ZM33.948 24L31.148 19.936H33.916L36.748 24H33.948ZM29.42 20.032L28.268 18.816H31.532C32.332 18.816 32.9293 18.6453 33.324 18.304C33.7187 17.952 33.916 17.472 33.916 16.864C33.916 16.2453 33.7187 15.7653 33.324 15.424C32.9293 15.0827 32.332 14.912 31.532 14.912H28.268L29.42 13.68V20.032ZM42.6289 20.496V18.496H47.1569V20.496H42.6289ZM59.796 24L56.916 19.92L58.948 18.72L62.74 24H59.796ZM53.7 24V15.392H56.196V24H53.7ZM55.46 20.736V18.736H58.468V20.736H55.46ZM59.188 19.984L56.852 19.728L59.876 15.392H62.532L59.188 19.984ZM67.732 24.128C66.8147 24.128 65.9987 23.936 65.284 23.552C64.58 23.168 64.02 22.6453 63.604 21.984C63.1987 21.312 62.996 20.5493 62.996 19.696C62.996 18.832 63.1987 18.0693 63.604 17.408C64.02 16.736 64.58 16.2133 65.284 15.84C65.9987 15.456 66.8147 15.264 67.732 15.264C68.6387 15.264 69.4493 15.456 70.164 15.84C70.8787 16.2133 71.4387 16.7307 71.844 17.392C72.2493 18.0533 72.452 18.8213 72.452 19.696C72.452 20.5493 72.2493 21.312 71.844 21.984C71.4387 22.6453 70.8787 23.168 70.164 23.552C69.4493 23.936 68.6387 24.128 67.732 24.128ZM67.732 22.08C68.148 22.08 68.5213 21.984 68.852 21.792C69.1827 21.6 69.444 21.328 69.636 20.976C69.828 20.6133 69.924 20.1867 69.924 19.696C69.924 19.1947 69.828 18.768 69.636 18.416C69.444 18.064 69.1827 17.792 68.852 17.6C68.5213 17.408 68.148 17.312 67.732 17.312C67.316 17.312 66.9427 17.408 66.612 17.6C66.2813 17.792 66.0147 18.064 65.812 18.416C65.62 18.768 65.524 19.1947 65.524 19.696C65.524 20.1867 65.62 20.6133 65.812 20.976C66.0147 21.328 66.2813 21.6 66.612 21.792C66.9427 21.984 67.316 22.08 67.732 22.08ZM79.9638 22.88V17.44H77.1478L77.0998 18.544C77.0784 19.0027 77.0518 19.44 77.0198 19.856C76.9878 20.272 76.9238 20.6507 76.8278 20.992C76.7424 21.3227 76.6144 21.6053 76.4438 21.84C76.2731 22.064 76.0438 22.2187 75.7558 22.304L73.2918 21.952C73.6011 21.952 73.8518 21.8613 74.0438 21.68C74.2358 21.488 74.3851 21.2267 74.4918 20.896C74.5984 20.5547 74.6784 20.1707 74.7318 19.744C74.7851 19.3067 74.8224 18.848 74.8438 18.368L74.9557 15.392H82.4598V22.88H79.9638ZM73.0038 25.856V21.952H83.6918V25.856H81.3718V24H75.3238V25.856H73.0038Z" fill="#5A5958"/>
</svg>
